# xmcd
#
# Track frame offsets:
#	150
#	19085
#	36388
#	58495
#	70698
#	93673
#	113505
#
# Disc length: 1808 seconds
#
# Revision: 1
# Processed by: cddbd v1.5.1PL0 Copyright (c) Steve Scherf et al.
# Submitted via: CDex 1.50Beta5
#
DISCID=5d070e07
DTITLE=美空ひばり - コロムビア 音得盤シリーズ 美空ひばりII
DYEAR=2002
DGENRE=Pop
TTITLE0=ひばりの佐渡情話
TTITLE1=柔
TTITLE2=悲しい酒(セリフ入り)
TTITLE3=真赤な太陽
TTITLE4=愛燦燦
TTITLE5=みだれ髪
TTITLE6=川の流れのように
EXTD=
EXTT0=
EXTT1=
EXTT2=
EXTT3=
EXTT4=
EXTT5=
EXTT6=
PLAYORDER=
